<svg width="531" height="155" viewBox="0 0 531 155" fill="none" xmlns="http://www.w3.org/2000/svg">
<path d="M49.392 36.568C51.696 36.568 53.744 36.824 55.536 37.336C57.328 37.8053 58.7147 38.488 59.696 39.384C60.72 40.2373 61.232 41.24 61.232 42.392C61.232 43.1173 61.0187 43.8 60.592 44.44C60.1653 45.0373 59.5253 45.336 58.672 45.336C58.0747 45.336 57.5627 45.2293 57.136 45.016C56.752 44.8027 56.3893 44.5467 56.048 44.248C55.7067 43.9493 55.28 43.6507 54.768 43.352C54.2987 43.096 53.5947 42.8827 52.656 42.712C51.76 42.5413 50.9493 42.456 50.224 42.456C47.9627 42.456 46 42.968 44.336 43.992C42.7147 45.016 41.4347 46.4027 40.496 48.152C39.6 49.9013 39.152 51.8853 39.152 54.104C39.152 56.3227 39.6 58.3067 40.496 60.056C41.4347 61.8053 42.6933 63.192 44.272 64.216C45.8933 65.24 47.7707 65.752 49.904 65.752C51.184 65.752 52.2293 65.6667 53.04 65.496C53.8507 65.2827 54.5547 65.0267 55.152 64.728C55.792 64.344 56.3253 63.96 56.752 63.576C57.2213 63.1493 57.8613 62.936 58.672 62.936C59.6107 62.936 60.3147 63.2347 60.784 63.832C61.296 64.3867 61.552 65.0907 61.552 65.944C61.552 66.8827 60.976 67.8 59.824 68.696C58.7147 69.5493 57.2213 70.2533 55.344 70.808C53.4667 71.3627 51.3973 71.64 49.136 71.64C45.808 71.64 42.9067 70.872 40.432 69.336C38 67.8 36.1013 65.7093 34.736 63.064C33.4133 60.4187 32.752 57.432 32.752 54.104C32.752 50.7333 33.456 47.7467 34.864 45.144C36.272 42.4987 38.2347 40.408 40.752 38.872C43.2693 37.336 46.1493 36.568 49.392 36.568ZM92.7555 37.336C93.6515 37.336 94.3982 37.656 94.9955 38.296C95.6355 38.8933 95.9555 39.6613 95.9555 40.6V57.432C95.9555 61.8693 94.7182 65.3467 92.2435 67.864C89.7688 70.3387 86.2702 71.576 81.7475 71.576C77.2675 71.576 73.7902 70.3387 71.3155 67.864C68.8835 65.3467 67.6675 61.8693 67.6675 57.432V40.6C67.6675 39.6613 67.9662 38.8933 68.5635 38.296C69.1608 37.656 69.9288 37.336 70.8675 37.336C71.7635 37.336 72.5102 37.656 73.1075 38.296C73.7475 38.8933 74.0675 39.6613 74.0675 40.6V57.432C74.0675 60.2053 74.7075 62.2747 75.9875 63.64C77.3102 65.0053 79.2302 65.688 81.7475 65.688C84.3075 65.688 86.2488 65.0053 87.5715 63.64C88.8942 62.2747 89.5555 60.2053 89.5555 57.432V40.6C89.5555 39.6613 89.8542 38.8933 90.4515 38.296C91.0488 37.656 91.8168 37.336 92.7555 37.336ZM102.871 65.752C102.487 65.1547 102.316 64.472 102.359 63.704C102.402 62.8933 102.85 62.2107 103.703 61.656C104.3 61.272 104.919 61.1227 105.559 61.208C106.242 61.2507 106.882 61.5707 107.479 62.168C108.674 63.4907 109.996 64.536 111.447 65.304C112.94 66.072 114.732 66.456 116.823 66.456C117.676 66.4133 118.551 66.2853 119.447 66.072C120.343 65.816 121.111 65.3893 121.751 64.792C122.391 64.152 122.711 63.2347 122.711 62.04C122.711 60.9733 122.37 60.12 121.687 59.48C121.004 58.84 120.108 58.328 118.999 57.944C117.89 57.5173 116.695 57.1333 115.415 56.792C114.05 56.408 112.663 55.9813 111.255 55.512C109.89 55.0427 108.652 54.4453 107.543 53.72C106.434 52.952 105.516 51.9707 104.791 50.776C104.108 49.5813 103.767 48.1093 103.767 46.36C103.767 44.3547 104.322 42.6267 105.431 41.176C106.583 39.7253 108.055 38.5947 109.847 37.784C111.682 36.9733 113.666 36.568 115.799 36.568C117.036 36.568 118.338 36.7387 119.703 37.08C121.068 37.3787 122.391 37.8693 123.671 38.552C124.951 39.2347 126.06 40.1307 126.999 41.24C127.426 41.7947 127.66 42.456 127.703 43.224C127.788 43.992 127.447 44.6747 126.679 45.272C126.167 45.6987 125.548 45.8907 124.823 45.848C124.098 45.8053 123.5 45.5707 123.031 45.144C122.22 44.12 121.175 43.3307 119.895 42.776C118.615 42.1787 117.164 41.88 115.543 41.88C114.732 41.88 113.879 42.008 112.983 42.264C112.13 42.4773 111.404 42.8827 110.807 43.48C110.21 44.0773 109.911 44.952 109.911 46.104C109.911 47.1707 110.252 48.024 110.935 48.664C111.66 49.304 112.599 49.8373 113.751 50.264C114.903 50.6907 116.162 51.0747 117.527 51.416C118.85 51.7573 120.151 52.1627 121.431 52.632C122.754 53.1013 123.927 53.72 124.951 54.488C126.018 55.2133 126.871 56.1733 127.511 57.368C128.194 58.52 128.535 59.992 128.535 61.784C128.535 63.8747 127.916 65.6667 126.679 67.16C125.484 68.6107 123.948 69.72 122.071 70.488C120.236 71.256 118.295 71.64 116.247 71.64C113.815 71.64 111.383 71.2133 108.951 70.36C106.562 69.464 104.535 67.928 102.871 65.752ZM134.97 37.72H150.01C150.863 37.72 151.567 38.0187 152.122 38.616C152.719 39.1707 153.018 39.8747 153.018 40.728C153.018 41.5387 152.719 42.2213 152.122 42.776C151.567 43.3307 150.863 43.608 150.01 43.608H134.97C134.116 43.608 133.391 43.3307 132.794 42.776C132.239 42.1787 131.962 41.4747 131.962 40.664C131.962 39.8107 132.239 39.1067 132.794 38.552C133.391 37.9973 134.116 37.72 134.97 37.72ZM141.69 29.4C142.628 29.4 143.396 29.72 143.994 30.36C144.591 30.9573 144.89 31.7253 144.89 32.664V62.36C144.89 63.128 145.018 63.7467 145.274 64.216C145.53 64.6853 145.871 65.0053 146.298 65.176C146.767 65.3467 147.236 65.432 147.706 65.432C148.175 65.432 148.58 65.3467 148.922 65.176C149.306 65.0053 149.754 64.92 150.266 64.92C150.778 64.92 151.247 65.1547 151.674 65.624C152.1 66.0933 152.314 66.7333 152.314 67.544C152.314 68.568 151.759 69.4 150.65 70.04C149.54 70.68 148.346 71 147.066 71C146.34 71 145.487 70.936 144.506 70.808C143.524 70.68 142.564 70.36 141.626 69.848C140.73 69.336 139.983 68.5253 139.385 67.416C138.788 66.264 138.49 64.664 138.49 62.616V32.664C138.49 31.7253 138.788 30.9573 139.385 30.36C140.025 29.72 140.794 29.4 141.69 29.4ZM229.501 36.76C232.658 36.76 235.09 37.5493 236.797 39.128C238.504 40.664 239.634 42.7547 240.189 45.4L239.165 45.08L239.613 44.056C240.168 42.9467 241 41.8373 242.109 40.728C243.261 39.576 244.626 38.6373 246.205 37.912C247.784 37.144 249.469 36.76 251.261 36.76C254.205 36.76 256.488 37.4 258.109 38.68C259.73 39.9173 260.861 41.6027 261.501 43.736C262.141 45.8267 262.461 48.1733 262.461 50.776V67.736C262.461 68.6747 262.162 69.464 261.565 70.104C260.968 70.7013 260.2 71 259.261 71C258.365 71 257.597 70.7013 256.957 70.104C256.36 69.464 256.061 68.6747 256.061 67.736V50.84C256.061 49.3467 255.848 47.9813 255.421 46.744C255.037 45.5067 254.333 44.5253 253.309 43.8C252.328 43.032 250.962 42.648 249.213 42.648C247.549 42.648 246.056 43.032 244.733 43.8C243.453 44.5253 242.45 45.5067 241.725 46.744C241 47.9813 240.637 49.3467 240.637 50.84V67.736C240.637 68.6747 240.338 69.464 239.741 70.104C239.144 70.7013 238.376 71 237.437 71C236.498 71 235.73 70.7013 235.133 70.104C234.536 69.464 234.237 68.6747 234.237 67.736V50.776C234.237 49.2827 234.024 47.9173 233.597 46.68C233.213 45.4427 232.53 44.4613 231.549 43.736C230.568 43.0107 229.202 42.648 227.453 42.648C225.789 42.648 224.317 43.0107 223.037 43.736C221.757 44.4613 220.754 45.4427 220.029 46.68C219.346 47.9173 219.005 49.2827 219.005 50.776V67.736C219.005 68.6747 218.685 69.464 218.045 70.104C217.448 70.7013 216.701 71 215.805 71C214.866 71 214.098 70.7013 213.501 70.104C212.904 69.464 212.605 68.6747 212.605 67.736V40.6C212.605 39.6613 212.904 38.8933 213.501 38.296C214.098 37.656 214.866 37.336 215.805 37.336C216.701 37.336 217.448 37.656 218.045 38.296C218.685 38.8933 219.005 39.6613 219.005 40.6V44.376L217.789 45.08C218.088 44.1413 218.578 43.1813 219.261 42.2C219.944 41.2187 220.797 40.3227 221.821 39.512C222.888 38.7013 224.061 38.04 225.341 37.528C226.621 37.016 228.008 36.76 229.501 36.76ZM277.434 67.736C277.434 68.6747 277.135 69.464 276.538 70.104C275.94 70.7013 275.172 71 274.234 71C273.338 71 272.57 70.7013 271.93 70.104C271.332 69.464 271.034 68.6747 271.034 67.736V40.344C271.034 39.4053 271.332 38.6373 271.93 38.04C272.57 37.4 273.338 37.08 274.234 37.08C275.172 37.08 275.94 37.4 276.538 38.04C277.135 38.6373 277.434 39.4053 277.434 40.344V67.736ZM274.17 32.856C272.932 32.856 272.036 32.6427 271.482 32.216C270.927 31.7467 270.65 30.9787 270.65 29.912V28.888C270.65 27.8213 270.948 27.0747 271.546 26.648C272.143 26.2213 273.039 26.008 274.234 26.008C275.514 26.008 276.431 26.2427 276.986 26.712C277.54 27.1387 277.818 27.864 277.818 28.888V29.912C277.818 31.0213 277.519 31.7893 276.922 32.216C276.367 32.6427 275.45 32.856 274.17 32.856ZM307.419 65.112C308.272 65.112 308.976 65.3893 309.531 65.944C310.128 66.4987 310.427 67.2027 310.427 68.056C310.427 68.8667 310.128 69.5707 309.531 70.168C308.976 70.7227 308.272 71 307.419 71H286.747C285.851 71 285.125 70.68 284.571 70.04C284.016 69.3573 283.76 68.696 283.803 68.056C283.845 67.544 283.909 67.096 283.995 66.712C284.123 66.2853 284.4 65.816 284.827 65.304L301.915 42.648V43.416H287.643C286.789 43.416 286.064 43.1387 285.467 42.584C284.912 41.9867 284.635 41.2827 284.635 40.472C284.635 39.6187 284.912 38.9147 285.467 38.36C286.064 37.8053 286.789 37.528 287.643 37.528H307.355C308.165 37.528 308.848 37.848 309.403 38.488C310 39.0853 310.256 39.832 310.171 40.728C310.171 41.112 310.107 41.496 309.979 41.88C309.893 42.2213 309.659 42.6267 309.275 43.096L292.443 65.496L292.187 65.112H307.419ZM331.973 71.64C328.431 71.64 325.359 70.9147 322.757 69.464C320.154 67.9707 318.127 65.944 316.677 63.384C315.269 60.7813 314.565 57.816 314.565 54.488C314.565 50.7333 315.311 47.5333 316.805 44.888C318.341 42.2 320.325 40.152 322.757 38.744C325.189 37.2933 327.77 36.568 330.501 36.568C332.591 36.568 334.575 36.9947 336.453 37.848C338.33 38.6587 339.994 39.8107 341.445 41.304C342.938 42.7547 344.111 44.4827 344.965 46.488C345.818 48.4507 346.266 50.6053 346.309 52.952C346.266 53.8053 345.925 54.5093 345.285 55.064C344.645 55.6187 343.898 55.896 343.045 55.896H318.149L316.613 50.456H340.677L339.461 51.608V50.008C339.375 48.5147 338.885 47.2133 337.989 46.104C337.093 44.952 335.983 44.0773 334.661 43.48C333.338 42.84 331.951 42.52 330.501 42.52C329.221 42.52 327.983 42.7333 326.789 43.16C325.637 43.544 324.591 44.184 323.653 45.08C322.757 45.976 322.031 47.1707 321.477 48.664C320.965 50.1147 320.709 51.928 320.709 54.104C320.709 56.4507 321.199 58.4987 322.181 60.248C323.162 61.9973 324.485 63.3627 326.149 64.344C327.813 65.2827 329.647 65.752 331.653 65.752C333.231 65.752 334.533 65.6027 335.557 65.304C336.581 64.9627 337.434 64.5573 338.117 64.088C338.799 63.6187 339.397 63.1707 339.909 62.744C340.549 62.36 341.189 62.168 341.829 62.168C342.597 62.168 343.237 62.4453 343.749 63C344.261 63.512 344.517 64.1307 344.517 64.856C344.517 65.7947 344.047 66.648 343.109 67.416C341.957 68.5253 340.357 69.5067 338.309 70.36C336.303 71.2133 334.191 71.64 331.973 71.64ZM355.975 70.936C354.908 70.936 354.076 70.6373 353.479 70.04C352.924 69.4427 352.647 68.6107 352.647 67.544V66.392C352.647 65.3253 352.924 64.4933 353.479 63.896C354.076 63.2987 354.908 63 355.975 63H356.679C357.745 63 358.556 63.2987 359.111 63.896C359.665 64.4933 359.943 65.3253 359.943 66.392V67.544C359.943 68.6107 359.665 69.4427 359.111 70.04C358.556 70.6373 357.745 70.936 356.679 70.936H355.975Z" fill="black"/>
<path d="M178.089 83.864C177.961 83.864 177.833 83.864 177.705 83.864C177.577 83.864 177.428 83.8427 177.257 83.8C174.057 83.16 171.604 82.264 169.897 81.112C168.19 79.96 167.017 78.5733 166.377 76.952C165.737 75.3307 165.417 73.496 165.417 71.448L165.545 65.304C165.545 63.6827 165.289 62.296 164.777 61.144C164.308 59.992 163.604 59.1173 162.665 58.52C161.769 57.88 160.66 57.5387 159.337 57.496H159.017C158.334 57.496 157.737 57.2613 157.225 56.792C156.756 56.3227 156.521 55.7253 156.521 55C156.521 54.2747 156.756 53.6773 157.225 53.208C157.737 52.7387 158.334 52.504 159.017 52.504H159.401C160.724 52.4187 161.833 52.0773 162.729 51.48C163.668 50.8827 164.372 50.008 164.841 48.856C165.31 47.704 165.545 46.3173 165.545 44.696L165.417 38.552C165.417 36.888 165.63 35.3947 166.057 34.072C166.484 32.7067 167.145 31.5333 168.041 30.552C168.98 29.5707 170.196 28.7173 171.689 27.992C173.225 27.2667 175.081 26.6693 177.257 26.2C178.324 25.9867 179.092 26.1573 179.561 26.712C180.073 27.224 180.329 27.8427 180.329 28.568C180.329 29.0373 180.158 29.4853 179.817 29.912C179.476 30.296 179.028 30.5733 178.473 30.744C176.468 31.4267 174.953 32.152 173.929 32.92C172.948 33.6453 172.286 34.5413 171.945 35.608C171.604 36.632 171.433 37.912 171.433 39.448L171.561 45.656C171.561 48.1733 170.964 50.2213 169.769 51.8C168.617 53.3787 166.996 54.488 164.905 55.128V54.872C166.996 55.512 168.617 56.6213 169.769 58.2C170.964 59.7787 171.561 61.8267 171.561 64.344L171.433 70.552C171.433 72.0453 171.604 73.304 171.945 74.328C172.286 75.3947 172.948 76.2907 173.929 77.016C174.953 77.784 176.468 78.5307 178.473 79.256C179.753 79.7253 180.372 80.5147 180.329 81.624C180.329 82.2213 180.094 82.7333 179.625 83.16C179.198 83.6293 178.686 83.864 178.089 83.864ZM185.587 83.864C184.862 83.864 184.307 83.5653 183.923 82.968C183.582 82.3707 183.411 81.8373 183.411 81.368C183.411 80.856 183.582 80.408 183.923 80.024C184.264 79.64 184.712 79.3627 185.267 79.192C187.315 78.5093 188.83 77.784 189.811 77.016C190.792 76.2907 191.454 75.3947 191.795 74.328C192.136 73.2613 192.307 71.9813 192.307 70.488L192.179 64.28C192.179 61.72 192.776 59.672 193.971 58.136C195.166 56.5573 196.787 55.448 198.835 54.808V55C196.787 54.36 195.166 53.272 193.971 51.736C192.776 50.1573 192.179 48.088 192.179 45.528L192.307 39.384C192.307 37.8053 192.136 36.5253 191.795 35.544C191.454 34.52 190.771 33.624 189.747 32.856C188.766 32.0453 187.272 31.32 185.267 30.68C183.987 30.2107 183.368 29.4 183.411 28.248C183.454 27.6507 183.688 27.1387 184.115 26.712C184.542 26.2427 185.054 26.008 185.651 26.008C185.779 26.008 185.907 26.0293 186.035 26.072C186.206 26.072 186.355 26.072 186.483 26.072C189.683 26.712 192.136 27.608 193.843 28.76C195.55 29.912 196.723 31.32 197.363 32.984C198.003 34.6053 198.323 36.4187 198.323 38.424L198.195 44.632C198.195 46.2533 198.43 47.64 198.899 48.792C199.411 49.944 200.136 50.84 201.075 51.48C202.014 52.0773 203.123 52.376 204.403 52.376H204.723C205.406 52.376 205.982 52.632 206.451 53.144C206.963 53.6133 207.219 54.2107 207.219 54.936C207.219 55.6613 206.963 56.2587 206.451 56.728C205.982 57.1973 205.406 57.432 204.723 57.432H204.339C203.016 57.4747 201.886 57.816 200.947 58.456C200.051 59.0533 199.368 59.928 198.899 61.08C198.43 62.1893 198.195 63.576 198.195 65.24L198.323 71.384C198.323 72.8773 198.131 74.2427 197.747 75.48C197.406 76.76 196.787 77.8907 195.891 78.872C195.038 79.8533 193.843 80.7493 192.307 81.56C190.771 82.3707 188.83 83.096 186.483 83.736C186.355 83.7787 186.227 83.8 186.099 83.8C185.971 83.8427 185.8 83.864 185.587 83.864ZM384.876 36.76C388.033 36.76 390.465 37.5493 392.172 39.128C393.879 40.664 395.009 42.7547 395.564 45.4L394.54 45.08L394.988 44.056C395.543 42.9467 396.375 41.8373 397.484 40.728C398.636 39.576 400.001 38.6373 401.58 37.912C403.159 37.144 404.844 36.76 406.636 36.76C409.58 36.76 411.863 37.4 413.484 38.68C415.105 39.9173 416.236 41.6027 416.876 43.736C417.516 45.8267 417.836 48.1733 417.836 50.776V67.736C417.836 68.6747 417.537 69.464 416.94 70.104C416.343 70.7013 415.575 71 414.636 71C413.74 71 412.972 70.7013 412.332 70.104C411.735 69.464 411.436 68.6747 411.436 67.736V50.84C411.436 49.3467 411.223 47.9813 410.796 46.744C410.412 45.5067 409.708 44.5253 408.684 43.8C407.703 43.032 406.337 42.648 404.588 42.648C402.924 42.648 401.431 43.032 400.108 43.8C398.828 44.5253 397.825 45.5067 397.1 46.744C396.375 47.9813 396.012 49.3467 396.012 50.84V67.736C396.012 68.6747 395.713 69.464 395.116 70.104C394.519 70.7013 393.751 71 392.812 71C391.873 71 391.105 70.7013 390.508 70.104C389.911 69.464 389.612 68.6747 389.612 67.736V50.776C389.612 49.2827 389.399 47.9173 388.972 46.68C388.588 45.4427 387.905 44.4613 386.924 43.736C385.943 43.0107 384.577 42.648 382.828 42.648C381.164 42.648 379.692 43.0107 378.412 43.736C377.132 44.4613 376.129 45.4427 375.404 46.68C374.721 47.9173 374.38 49.2827 374.38 50.776V67.736C374.38 68.6747 374.06 69.464 373.42 70.104C372.823 70.7013 372.076 71 371.18 71C370.241 71 369.473 70.7013 368.876 70.104C368.279 69.464 367.98 68.6747 367.98 67.736V40.6C367.98 39.6613 368.279 38.8933 368.876 38.296C369.473 37.656 370.241 37.336 371.18 37.336C372.076 37.336 372.823 37.656 373.42 38.296C374.06 38.8933 374.38 39.6613 374.38 40.6V44.376L373.164 45.08C373.463 44.1413 373.953 43.1813 374.636 42.2C375.319 41.2187 376.172 40.3227 377.196 39.512C378.263 38.7013 379.436 38.04 380.716 37.528C381.996 37.016 383.383 36.76 384.876 36.76ZM442.473 71.64C438.931 71.64 435.859 70.9147 433.257 69.464C430.654 67.9707 428.627 65.944 427.177 63.384C425.769 60.7813 425.065 57.816 425.065 54.488C425.065 50.7333 425.811 47.5333 427.305 44.888C428.841 42.2 430.825 40.152 433.257 38.744C435.689 37.2933 438.27 36.568 441.001 36.568C443.091 36.568 445.075 36.9947 446.953 37.848C448.83 38.6587 450.494 39.8107 451.945 41.304C453.438 42.7547 454.611 44.4827 455.465 46.488C456.318 48.4507 456.766 50.6053 456.809 52.952C456.766 53.8053 456.425 54.5093 455.785 55.064C455.145 55.6187 454.398 55.896 453.545 55.896H428.649L427.113 50.456H451.177L449.961 51.608V50.008C449.875 48.5147 449.385 47.2133 448.489 46.104C447.593 44.952 446.483 44.0773 445.161 43.48C443.838 42.84 442.451 42.52 441.001 42.52C439.721 42.52 438.483 42.7333 437.289 43.16C436.137 43.544 435.091 44.184 434.153 45.08C433.257 45.976 432.531 47.1707 431.977 48.664C431.465 50.1147 431.209 51.928 431.209 54.104C431.209 56.4507 431.699 58.4987 432.681 60.248C433.662 61.9973 434.985 63.3627 436.649 64.344C438.313 65.2827 440.147 65.752 442.153 65.752C443.731 65.752 445.033 65.6027 446.057 65.304C447.081 64.9627 447.934 64.5573 448.617 64.088C449.299 63.6187 449.897 63.1707 450.409 62.744C451.049 62.36 451.689 62.168 452.329 62.168C453.097 62.168 453.737 62.4453 454.249 63C454.761 63.512 455.017 64.1307 455.017 64.856C455.017 65.7947 454.547 66.648 453.609 67.416C452.457 68.5253 450.857 69.5067 448.809 70.36C446.803 71.2133 444.691 71.64 442.473 71.64Z" fill="#019EBF"/>
<rect x="4" y="5" width="481" height="99" stroke="#019EBF" stroke-width="2"/>
<rect x="482" y="1" width="6" height="6" fill="white" stroke="#019EBF" stroke-width="2"/>
<rect x="482" y="100" width="6" height="6" fill="white" stroke="#019EBF" stroke-width="2"/>
<rect x="1" y="100" width="6" height="6" fill="white" stroke="#019EBF" stroke-width="2"/>
<rect x="1" y="2" width="6" height="6" fill="white" stroke="#019EBF" stroke-width="2"/>
<path d="M485.734 102.108L491.254 142.92L493.275 143.462L502.401 130.976L517.776 129.316L518.318 127.295L485.734 102.108Z" fill="black"/>
</svg>
